<mxfile host="app.diagrams.net" agent="Mozilla/5.0 (Windows NT 10.0; Win64; x64) AppleWebKit/537.36 (KHTML, like Gecko) Chrome/131.0.0.0 Safari/537.36" version="25.0.3">
  <diagram name="Страница — 1" id="zKzwUaiBk_ueuQeUGqoV">
    <mxGraphModel dx="478" dy="1980" grid="1" gridSize="10" guides="1" tooltips="1" connect="1" arrows="1" fold="1" page="1" pageScale="1" pageWidth="827" pageHeight="1169" math="0" shadow="0">
      <root>
        <mxCell id="0" />
        <mxCell id="1" parent="0" />
        <mxCell id="yZ3c9LgN22mQWaVADUPp-1" value="начало" style="ellipse;whiteSpace=wrap;html=1;" vertex="1" parent="1">
          <mxGeometry x="420" width="120" height="80" as="geometry" />
        </mxCell>
        <mxCell id="yZ3c9LgN22mQWaVADUPp-2" value="" style="endArrow=none;dashed=1;html=1;dashPattern=1 3;strokeWidth=2;rounded=0;exitX=1;exitY=0.5;exitDx=0;exitDy=0;" edge="1" parent="1" source="yZ3c9LgN22mQWaVADUPp-1">
          <mxGeometry width="50" height="50" relative="1" as="geometry">
            <mxPoint x="480" y="410" as="sourcePoint" />
            <mxPoint x="720" y="40" as="targetPoint" />
          </mxGeometry>
        </mxCell>
        <mxCell id="yZ3c9LgN22mQWaVADUPp-3" value="&lt;div&gt;#include &amp;lt;iostream&amp;gt;&lt;/div&gt;&lt;div&gt;#include &amp;lt;cmath&amp;gt;&lt;/div&gt;&lt;div&gt;#include &amp;lt;vector&amp;gt;&lt;/div&gt;&lt;div&gt;#include &amp;lt;iomanip&amp;gt;&lt;/div&gt;&lt;div&gt;&lt;span style=&quot;background-color: initial;&quot;&gt;using namespace std;&lt;/span&gt;&lt;/div&gt;" style="rounded=0;whiteSpace=wrap;html=1;align=left;" vertex="1" parent="1">
          <mxGeometry x="720" y="-10" width="143" height="100" as="geometry" />
        </mxCell>
        <mxCell id="yZ3c9LgN22mQWaVADUPp-4" value="int main()" style="shape=process;whiteSpace=wrap;html=1;backgroundOutline=1;" vertex="1" parent="1">
          <mxGeometry x="420" y="110" width="120" height="60" as="geometry" />
        </mxCell>
        <mxCell id="yZ3c9LgN22mQWaVADUPp-5" value="" style="endArrow=classic;html=1;rounded=0;entryX=0.5;entryY=0;entryDx=0;entryDy=0;exitX=0.5;exitY=1;exitDx=0;exitDy=0;" edge="1" parent="1" source="yZ3c9LgN22mQWaVADUPp-1" target="yZ3c9LgN22mQWaVADUPp-4">
          <mxGeometry width="50" height="50" relative="1" as="geometry">
            <mxPoint x="470" y="410" as="sourcePoint" />
            <mxPoint x="520" y="360" as="targetPoint" />
          </mxGeometry>
        </mxCell>
        <mxCell id="yZ3c9LgN22mQWaVADUPp-6" value="double a = 3.14159265358979323846 / 5.0;" style="rounded=0;whiteSpace=wrap;html=1;" vertex="1" parent="1">
          <mxGeometry x="360" y="190" width="260" height="30" as="geometry" />
        </mxCell>
        <mxCell id="yZ3c9LgN22mQWaVADUPp-7" value="double b = 9.0 * 3.14159265358979323846 / 5.0;" style="rounded=0;whiteSpace=wrap;html=1;" vertex="1" parent="1">
          <mxGeometry x="337.5" y="250" width="285" height="30" as="geometry" />
        </mxCell>
        <mxCell id="yZ3c9LgN22mQWaVADUPp-8" value="" style="endArrow=classic;html=1;rounded=0;exitX=0.5;exitY=1;exitDx=0;exitDy=0;entryX=0.463;entryY=0.007;entryDx=0;entryDy=0;entryPerimeter=0;" edge="1" parent="1" source="yZ3c9LgN22mQWaVADUPp-4" target="yZ3c9LgN22mQWaVADUPp-6">
          <mxGeometry width="50" height="50" relative="1" as="geometry">
            <mxPoint x="480" y="410" as="sourcePoint" />
            <mxPoint x="490" y="200" as="targetPoint" />
          </mxGeometry>
        </mxCell>
        <mxCell id="yZ3c9LgN22mQWaVADUPp-9" value="" style="endArrow=classic;html=1;rounded=0;entryX=0.5;entryY=0;entryDx=0;entryDy=0;exitX=0.459;exitY=0.917;exitDx=0;exitDy=0;exitPerimeter=0;" edge="1" parent="1" source="yZ3c9LgN22mQWaVADUPp-6" target="yZ3c9LgN22mQWaVADUPp-7">
          <mxGeometry width="50" height="50" relative="1" as="geometry">
            <mxPoint x="480" y="410" as="sourcePoint" />
            <mxPoint x="530" y="360" as="targetPoint" />
          </mxGeometry>
        </mxCell>
        <mxCell id="yZ3c9LgN22mQWaVADUPp-10" value="&amp;nbsp;int num_points = 20;" style="rounded=0;whiteSpace=wrap;html=1;" vertex="1" parent="1">
          <mxGeometry x="385" y="310" width="190" height="30" as="geometry" />
        </mxCell>
        <mxCell id="yZ3c9LgN22mQWaVADUPp-11" value="" style="endArrow=classic;html=1;rounded=0;exitX=0.5;exitY=1;exitDx=0;exitDy=0;entryX=0.5;entryY=0;entryDx=0;entryDy=0;" edge="1" parent="1" source="yZ3c9LgN22mQWaVADUPp-7" target="yZ3c9LgN22mQWaVADUPp-10">
          <mxGeometry width="50" height="50" relative="1" as="geometry">
            <mxPoint x="480" y="410" as="sourcePoint" />
            <mxPoint x="530" y="360" as="targetPoint" />
          </mxGeometry>
        </mxCell>
        <mxCell id="yZ3c9LgN22mQWaVADUPp-12" value="vector&amp;lt;int&amp;gt; n_values = { 10, 20, 30 };" style="rounded=0;whiteSpace=wrap;html=1;" vertex="1" parent="1">
          <mxGeometry x="375" y="370" width="210" height="30" as="geometry" />
        </mxCell>
        <mxCell id="yZ3c9LgN22mQWaVADUPp-13" value="" style="endArrow=classic;html=1;rounded=0;entryX=0.5;entryY=0;entryDx=0;entryDy=0;exitX=0.5;exitY=1;exitDx=0;exitDy=0;" edge="1" parent="1" source="yZ3c9LgN22mQWaVADUPp-10" target="yZ3c9LgN22mQWaVADUPp-12">
          <mxGeometry width="50" height="50" relative="1" as="geometry">
            <mxPoint x="480" y="410" as="sourcePoint" />
            <mxPoint x="530" y="360" as="targetPoint" />
          </mxGeometry>
        </mxCell>
        <mxCell id="yZ3c9LgN22mQWaVADUPp-14" value="cout &amp;lt;&amp;lt; fixed &amp;lt;&amp;lt; setprecision(6);" style="shape=parallelogram;perimeter=parallelogramPerimeter;whiteSpace=wrap;html=1;fixedSize=1;" vertex="1" parent="1">
          <mxGeometry x="365" y="440" width="230" height="30" as="geometry" />
        </mxCell>
        <mxCell id="yZ3c9LgN22mQWaVADUPp-15" value="" style="endArrow=classic;html=1;rounded=0;entryX=0.5;entryY=0;entryDx=0;entryDy=0;exitX=0.5;exitY=1;exitDx=0;exitDy=0;" edge="1" parent="1" source="yZ3c9LgN22mQWaVADUPp-12" target="yZ3c9LgN22mQWaVADUPp-14">
          <mxGeometry width="50" height="50" relative="1" as="geometry">
            <mxPoint x="480" y="410" as="sourcePoint" />
            <mxPoint x="530" y="360" as="targetPoint" />
          </mxGeometry>
        </mxCell>
        <mxCell id="yZ3c9LgN22mQWaVADUPp-19" value="" style="verticalLabelPosition=bottom;verticalAlign=top;html=1;shape=hexagon;perimeter=hexagonPerimeter2;arcSize=6;size=0.0967741935483871;" vertex="1" parent="1">
          <mxGeometry x="320" y="690" width="310" height="40" as="geometry" />
        </mxCell>
        <mxCell id="yZ3c9LgN22mQWaVADUPp-20" value="" style="verticalLabelPosition=bottom;verticalAlign=top;html=1;shape=hexagon;perimeter=hexagonPerimeter2;arcSize=6;size=0.06382978723404255;" vertex="1" parent="1">
          <mxGeometry x="300" y="500" width="350" height="60" as="geometry" />
        </mxCell>
        <mxCell id="yZ3c9LgN22mQWaVADUPp-22" value="for (double x = a; x &amp;lt;= b; x += (b - a) / num_points)" style="text;html=1;align=center;verticalAlign=middle;resizable=0;points=[];autosize=1;strokeColor=none;fillColor=none;" vertex="1" parent="1">
          <mxGeometry x="320" y="515" width="290" height="30" as="geometry" />
        </mxCell>
        <mxCell id="yZ3c9LgN22mQWaVADUPp-23" value="" style="endArrow=classic;html=1;rounded=0;exitX=0.5;exitY=1;exitDx=0;exitDy=0;" edge="1" parent="1" source="yZ3c9LgN22mQWaVADUPp-14">
          <mxGeometry width="50" height="50" relative="1" as="geometry">
            <mxPoint x="460" y="420" as="sourcePoint" />
            <mxPoint x="480" y="500" as="targetPoint" />
          </mxGeometry>
        </mxCell>
        <mxCell id="yZ3c9LgN22mQWaVADUPp-26" value="double y_val = y_func(x);" style="rounded=0;whiteSpace=wrap;html=1;" vertex="1" parent="1">
          <mxGeometry x="380" y="585" width="200" height="30" as="geometry" />
        </mxCell>
        <mxCell id="yZ3c9LgN22mQWaVADUPp-27" value="" style="endArrow=classic;html=1;rounded=0;entryX=0.5;entryY=0;entryDx=0;entryDy=0;exitX=0.514;exitY=0.969;exitDx=0;exitDy=0;exitPerimeter=0;" edge="1" parent="1" source="yZ3c9LgN22mQWaVADUPp-20" target="yZ3c9LgN22mQWaVADUPp-26">
          <mxGeometry width="50" height="50" relative="1" as="geometry">
            <mxPoint x="460" y="420" as="sourcePoint" />
            <mxPoint x="510" y="370" as="targetPoint" />
          </mxGeometry>
        </mxCell>
        <mxCell id="yZ3c9LgN22mQWaVADUPp-28" value="cout &amp;lt;&amp;lt; &quot;x = &quot; &amp;lt;&amp;lt; x &amp;lt;&amp;lt; &quot;, y = &quot; &amp;lt;&amp;lt; y_val;" style="shape=parallelogram;perimeter=parallelogramPerimeter;whiteSpace=wrap;html=1;fixedSize=1;" vertex="1" parent="1">
          <mxGeometry x="355" y="640" width="250" height="30" as="geometry" />
        </mxCell>
        <mxCell id="yZ3c9LgN22mQWaVADUPp-29" value="" style="endArrow=classic;html=1;rounded=0;entryX=0.5;entryY=0;entryDx=0;entryDy=0;exitX=0.5;exitY=1;exitDx=0;exitDy=0;" edge="1" parent="1" source="yZ3c9LgN22mQWaVADUPp-26" target="yZ3c9LgN22mQWaVADUPp-28">
          <mxGeometry width="50" height="50" relative="1" as="geometry">
            <mxPoint x="475" y="640" as="sourcePoint" />
            <mxPoint x="510" y="370" as="targetPoint" />
          </mxGeometry>
        </mxCell>
        <mxCell id="yZ3c9LgN22mQWaVADUPp-30" value="&lt;div&gt;for (int n : n_values) {&lt;/div&gt;&lt;div&gt;&amp;nbsp; &amp;nbsp; &amp;nbsp; &amp;nbsp; &amp;nbsp; &amp;nbsp; double s_val = s_func(x, n);&lt;/div&gt;" style="text;html=1;align=center;verticalAlign=middle;resizable=0;points=[];autosize=1;strokeColor=none;fillColor=none;" vertex="1" parent="1">
          <mxGeometry x="375" y="690" width="210" height="40" as="geometry" />
        </mxCell>
        <mxCell id="yZ3c9LgN22mQWaVADUPp-31" value="" style="endArrow=classic;html=1;rounded=0;entryX=0.5;entryY=0;entryDx=0;entryDy=0;entryPerimeter=0;exitX=0.5;exitY=1;exitDx=0;exitDy=0;" edge="1" parent="1" source="yZ3c9LgN22mQWaVADUPp-28" target="yZ3c9LgN22mQWaVADUPp-30">
          <mxGeometry width="50" height="50" relative="1" as="geometry">
            <mxPoint x="510" y="420" as="sourcePoint" />
            <mxPoint x="560" y="370" as="targetPoint" />
          </mxGeometry>
        </mxCell>
        <mxCell id="yZ3c9LgN22mQWaVADUPp-32" value="cout &amp;lt;&amp;lt; &quot;, S(&quot; &amp;lt;&amp;lt; n &amp;lt;&amp;lt; &quot;) = &quot; &amp;lt;&amp;lt; s_val;" style="shape=parallelogram;perimeter=parallelogramPerimeter;whiteSpace=wrap;html=1;fixedSize=1;" vertex="1" parent="1">
          <mxGeometry x="355" y="760" width="250" height="30" as="geometry" />
        </mxCell>
        <mxCell id="yZ3c9LgN22mQWaVADUPp-33" value="" style="endArrow=classic;html=1;rounded=0;entryX=0.5;entryY=0;entryDx=0;entryDy=0;" edge="1" parent="1" target="yZ3c9LgN22mQWaVADUPp-32">
          <mxGeometry width="50" height="50" relative="1" as="geometry">
            <mxPoint x="480" y="730" as="sourcePoint" />
            <mxPoint x="560" y="470" as="targetPoint" />
          </mxGeometry>
        </mxCell>
        <mxCell id="yZ3c9LgN22mQWaVADUPp-34" value="return 0;" style="ellipse;whiteSpace=wrap;html=1;" vertex="1" parent="1">
          <mxGeometry x="435" y="820" width="90" height="60" as="geometry" />
        </mxCell>
        <mxCell id="yZ3c9LgN22mQWaVADUPp-35" value="" style="endArrow=classic;html=1;rounded=0;entryX=0.5;entryY=0;entryDx=0;entryDy=0;exitX=0.5;exitY=1;exitDx=0;exitDy=0;" edge="1" parent="1" source="yZ3c9LgN22mQWaVADUPp-32" target="yZ3c9LgN22mQWaVADUPp-34">
          <mxGeometry width="50" height="50" relative="1" as="geometry">
            <mxPoint x="510" y="520" as="sourcePoint" />
            <mxPoint x="560" y="470" as="targetPoint" />
          </mxGeometry>
        </mxCell>
        <mxCell id="yZ3c9LgN22mQWaVADUPp-36" value="}" style="text;html=1;align=center;verticalAlign=middle;resizable=0;points=[];autosize=1;strokeColor=none;fillColor=none;" vertex="1" parent="1">
          <mxGeometry x="490" y="790" width="30" height="30" as="geometry" />
        </mxCell>
        <mxCell id="yZ3c9LgN22mQWaVADUPp-37" value="" style="endArrow=classic;html=1;rounded=0;exitX=0;exitY=0.5;exitDx=0;exitDy=0;entryX=0;entryY=0.5;entryDx=0;entryDy=0;" edge="1" parent="1" source="yZ3c9LgN22mQWaVADUPp-19" target="yZ3c9LgN22mQWaVADUPp-20">
          <mxGeometry width="50" height="50" relative="1" as="geometry">
            <mxPoint x="380" y="520" as="sourcePoint" />
            <mxPoint x="430" y="470" as="targetPoint" />
            <Array as="points">
              <mxPoint x="200" y="710" />
              <mxPoint x="200" y="530" />
            </Array>
          </mxGeometry>
        </mxCell>
        <mxCell id="yZ3c9LgN22mQWaVADUPp-38" value="" style="endArrow=classic;html=1;rounded=0;exitX=1;exitY=0.5;exitDx=0;exitDy=0;entryX=1.018;entryY=0.375;entryDx=0;entryDy=0;entryPerimeter=0;" edge="1" parent="1" source="yZ3c9LgN22mQWaVADUPp-20" target="yZ3c9LgN22mQWaVADUPp-34">
          <mxGeometry width="50" height="50" relative="1" as="geometry">
            <mxPoint x="520" y="520" as="sourcePoint" />
            <mxPoint x="570" y="470" as="targetPoint" />
            <Array as="points">
              <mxPoint x="720" y="530" />
              <mxPoint x="720" y="840" />
            </Array>
          </mxGeometry>
        </mxCell>
        <mxCell id="yZ3c9LgN22mQWaVADUPp-39" value="начало" style="ellipse;whiteSpace=wrap;html=1;" vertex="1" parent="1">
          <mxGeometry x="450" y="1080" width="100" height="60" as="geometry" />
        </mxCell>
        <mxCell id="yZ3c9LgN22mQWaVADUPp-40" value="double sum = 0;" style="rounded=0;whiteSpace=wrap;html=1;" vertex="1" parent="1">
          <mxGeometry x="450" y="1169" width="105" height="31" as="geometry" />
        </mxCell>
        <mxCell id="yZ3c9LgN22mQWaVADUPp-42" value="" style="verticalLabelPosition=bottom;verticalAlign=top;html=1;shape=hexagon;perimeter=hexagonPerimeter2;arcSize=6;size=0.0967741935483871;" vertex="1" parent="1">
          <mxGeometry x="410" y="1220" width="190" height="30" as="geometry" />
        </mxCell>
        <mxCell id="yZ3c9LgN22mQWaVADUPp-45" value="for (int i = 1; i &lt;= n; ++i)" style="text;whiteSpace=wrap;" vertex="1" parent="1">
          <mxGeometry x="435" y="1220" width="160" height="40" as="geometry" />
        </mxCell>
        <mxCell id="yZ3c9LgN22mQWaVADUPp-46" value="sum += cos(i * x) / (double)i;" style="rounded=0;whiteSpace=wrap;html=1;" vertex="1" parent="1">
          <mxGeometry x="422.5" y="1280" width="172.5" height="30" as="geometry" />
        </mxCell>
        <mxCell id="yZ3c9LgN22mQWaVADUPp-47" value="return sum;" style="rounded=0;whiteSpace=wrap;html=1;" vertex="1" parent="1">
          <mxGeometry x="445" y="1340" width="120" height="30" as="geometry" />
        </mxCell>
        <mxCell id="yZ3c9LgN22mQWaVADUPp-48" value="" style="endArrow=classic;html=1;rounded=0;entryX=0.5;entryY=0;entryDx=0;entryDy=0;" edge="1" parent="1" target="yZ3c9LgN22mQWaVADUPp-40">
          <mxGeometry width="50" height="50" relative="1" as="geometry">
            <mxPoint x="503" y="1140" as="sourcePoint" />
            <mxPoint x="550" y="1080" as="targetPoint" />
          </mxGeometry>
        </mxCell>
        <mxCell id="yZ3c9LgN22mQWaVADUPp-49" value="" style="endArrow=classic;html=1;rounded=0;entryX=0.436;entryY=-0.01;entryDx=0;entryDy=0;entryPerimeter=0;" edge="1" parent="1" target="yZ3c9LgN22mQWaVADUPp-45">
          <mxGeometry width="50" height="50" relative="1" as="geometry">
            <mxPoint x="505" y="1200" as="sourcePoint" />
            <mxPoint x="550" y="1080" as="targetPoint" />
          </mxGeometry>
        </mxCell>
        <mxCell id="yZ3c9LgN22mQWaVADUPp-50" value="" style="endArrow=classic;html=1;rounded=0;entryX=0.545;entryY=-0.034;entryDx=0;entryDy=0;entryPerimeter=0;" edge="1" parent="1" source="yZ3c9LgN22mQWaVADUPp-45" target="yZ3c9LgN22mQWaVADUPp-46">
          <mxGeometry width="50" height="50" relative="1" as="geometry">
            <mxPoint x="508" y="1260" as="sourcePoint" />
            <mxPoint x="400" y="1085" as="targetPoint" />
          </mxGeometry>
        </mxCell>
        <mxCell id="yZ3c9LgN22mQWaVADUPp-52" value="конец" style="ellipse;whiteSpace=wrap;html=1;" vertex="1" parent="1">
          <mxGeometry x="470" y="1390" width="95" height="60" as="geometry" />
        </mxCell>
        <mxCell id="yZ3c9LgN22mQWaVADUPp-53" value="" style="endArrow=classic;html=1;rounded=0;entryX=0.5;entryY=0;entryDx=0;entryDy=0;exitX=0.602;exitY=1.056;exitDx=0;exitDy=0;exitPerimeter=0;" edge="1" parent="1" source="yZ3c9LgN22mQWaVADUPp-47" target="yZ3c9LgN22mQWaVADUPp-52">
          <mxGeometry width="50" height="50" relative="1" as="geometry">
            <mxPoint x="500" y="1130" as="sourcePoint" />
            <mxPoint x="550" y="1080" as="targetPoint" />
          </mxGeometry>
        </mxCell>
        <mxCell id="yZ3c9LgN22mQWaVADUPp-54" value="" style="endArrow=classic;html=1;rounded=0;entryX=0;entryY=0.5;entryDx=0;entryDy=0;exitX=0.567;exitY=1.111;exitDx=0;exitDy=0;exitPerimeter=0;" edge="1" parent="1" source="yZ3c9LgN22mQWaVADUPp-46" target="yZ3c9LgN22mQWaVADUPp-42">
          <mxGeometry width="50" height="50" relative="1" as="geometry">
            <mxPoint x="500" y="1130" as="sourcePoint" />
            <mxPoint x="550" y="1080" as="targetPoint" />
            <Array as="points">
              <mxPoint x="520" y="1330" />
              <mxPoint x="410" y="1330" />
            </Array>
          </mxGeometry>
        </mxCell>
        <mxCell id="yZ3c9LgN22mQWaVADUPp-55" value="" style="endArrow=classic;html=1;rounded=0;exitX=1;exitY=0.25;exitDx=0;exitDy=0;" edge="1" parent="1" source="yZ3c9LgN22mQWaVADUPp-45">
          <mxGeometry width="50" height="50" relative="1" as="geometry">
            <mxPoint x="500" y="1130" as="sourcePoint" />
            <mxPoint x="570" y="1420" as="targetPoint" />
            <Array as="points">
              <mxPoint x="700" y="1230" />
              <mxPoint x="700" y="1420" />
            </Array>
          </mxGeometry>
        </mxCell>
      </root>
    </mxGraphModel>
  </diagram>
</mxfile>
